<svg width="40" height="40" viewBox="0 0 40 40" fill="none" xmlns="http://www.w3.org/2000/svg">
<mask id="mask0_13244_30591" style="mask-type:luminance" maskUnits="userSpaceOnUse" x="0" y="0" width="40" height="40">
<path d="M40 0H0V40H40V0Z" fill="white"/>
</mask>
<g mask="url(#mask0_13244_30591)">
<path d="M18.7373 0.0799778C18.7259 0.0914063 18.4916 0.114264 18.223 0.137121C17.9545 0.159978 17.6802 0.182835 17.623 0.194264C17.5658 0.205692 17.3716 0.234264 17.2002 0.257121C14.2002 0.628547 10.823 1.99426 8.28585 3.85141C6.96585 4.82284 5.00587 6.69142 4.40015 7.56567C4.35444 7.63427 4.28587 7.71997 4.24015 7.76567C4.17158 7.83427 3.31444 9.03997 3.16015 9.29142C2.46301 10.3886 1.71444 11.9086 1.26301 13.1314C0.777292 14.4514 0.445865 15.8114 0.21158 17.4286C0.0401513 18.5657 0.0401513 21.68 0.200151 22.4857C0.21158 22.5486 0.240151 22.7143 0.257294 22.8571C0.297294 23.2171 0.445865 24.0514 0.480151 24.1028C0.49158 24.1257 0.520151 24.2457 0.537294 24.3714C0.583007 24.6686 0.868722 25.6857 1.08015 26.3314C1.46872 27.4857 2.06872 28.8343 2.65729 29.8571C2.98301 30.4171 3.69729 31.5428 3.76587 31.6C3.78301 31.6171 3.99444 31.8857 4.22872 32.1943C4.45729 32.5028 4.76587 32.8914 4.90872 33.0514C5.33158 33.5314 6.67445 34.8686 6.96015 35.0971C7.1087 35.2171 7.3087 35.3771 7.40015 35.4628C7.92015 35.92 9.0916 36.7257 9.99445 37.2514C11.4402 38.0857 13.2059 38.8286 14.7716 39.2571C15.2173 39.3771 16.4916 39.6457 16.7716 39.68C16.9316 39.7028 17.1202 39.7257 17.2002 39.7428C18.3316 39.9543 21.023 39.9828 22.4002 39.8C22.4802 39.7886 22.6745 39.7657 22.8287 39.7428C22.9887 39.7257 23.4973 39.6286 23.9659 39.5371C27.8859 38.76 31.4802 36.7943 34.2859 33.9086C35.0573 33.1143 35.2516 32.8857 35.9659 31.9428C37.5487 29.8514 38.6801 27.48 39.3487 24.8571C39.4345 24.5257 39.5087 24.1828 39.5202 24.0914C39.5316 24 39.5658 23.8343 39.5945 23.72C39.6459 23.5371 39.7373 22.9486 39.8002 22.4286C39.9545 21.2114 39.9545 18.3543 39.8059 17.5714C39.7945 17.5086 39.7659 17.3257 39.7487 17.1714C39.6745 16.6228 39.6459 16.48 39.4859 15.7428C39.2859 14.8457 38.9316 13.6057 38.7487 13.1714C38.7202 13.1086 38.5659 12.72 38.3945 12.3143C36.9545 8.77712 34.383 5.65142 31.0687 3.40569C30.7602 3.19998 30.4973 3.02855 30.4859 3.02855C30.4802 3.02855 30.303 2.93141 30.1087 2.81141C29.103 2.20569 27.5716 1.49712 26.423 1.11426C25.8002 0.908547 24.2173 0.479978 23.8402 0.422835C23.7316 0.405692 23.5945 0.382835 23.543 0.371406C23.4859 0.359978 23.3145 0.331406 23.1602 0.308549C23.0116 0.291406 22.8345 0.262835 22.7716 0.251406C22.7087 0.239978 22.503 0.211406 22.3145 0.194264C22.1259 0.177121 21.9087 0.154264 21.8287 0.137121C21.6745 0.102835 18.7716 0.0514065 18.7373 0.0799778ZM21.6859 2.41712C21.783 2.43426 22.0116 2.46284 22.2002 2.47998C24.8573 2.77141 27.8973 3.94284 30.1716 5.55997C31.743 6.67997 32.8573 7.77142 34.2458 9.54282C34.3887 9.72567 35.0287 10.68 35.0287 10.7086C35.0287 10.7257 35.1202 10.88 35.2287 11.0514C36.1087 12.4286 37.1316 15.1771 37.3945 16.8857C37.4745 17.4228 37.503 17.5828 37.5202 17.68C37.5887 18.0514 37.6287 18.9428 37.6287 20.0857C37.623 21.5714 37.5887 21.9771 37.3658 23.2286C37.303 23.5714 37.2116 24.0114 37.1602 24.2C37.1145 24.3886 37.0687 24.5828 37.0573 24.6286C37.0002 24.8743 36.7259 25.7028 36.5259 26.2457C35.9773 27.6857 35.2916 28.96 34.2916 30.3886C33.783 31.1143 32.6059 32.4114 31.743 33.1943C31.1545 33.7257 29.943 34.6228 29.2287 35.0571C27.0345 36.3886 24.5145 37.2628 22.143 37.5143C21.9545 37.5371 21.7545 37.5657 21.703 37.5771C21.623 37.6 21.6002 37.5714 21.5945 37.4457C21.5887 37.24 21.5945 27.5828 21.5945 27.5371C21.6002 27.52 21.9545 27.5086 22.3887 27.5086C23.0916 27.5143 23.823 27.4628 24.0573 27.4C24.103 27.3886 24.223 27.36 24.3145 27.3486C24.7887 27.2628 25.7887 26.9371 26.3087 26.6914C28.3373 25.7371 29.6116 24.2057 30.143 22.0971C30.3087 21.4343 30.3145 21.4 30.3716 20.9714C30.3945 20.8 30.423 20.6171 30.4287 20.5657C30.5373 19.9714 30.5887 17.2171 30.503 16.3428C30.3659 14.96 29.7145 14.1143 28.5316 13.7943C28.2116 13.7143 27.143 13.6743 26.9259 13.7371C26.8745 13.7543 26.703 13.7771 26.5545 13.7943C25.7487 13.8857 24.3773 14.3828 23.5202 14.8971C22.3145 15.6228 21.0116 16.8914 20.4402 17.8971C20.3773 18.0171 20.3087 18.1143 20.2916 18.1143C20.2745 18.1143 20.103 17.8743 19.9145 17.5828C19.4287 16.84 18.3259 15.7428 17.5259 15.2114C16.4287 14.48 15.0516 13.9257 14.0059 13.7943C13.863 13.7771 13.6802 13.7486 13.6002 13.7371C13.5202 13.72 13.1945 13.7086 12.8745 13.7086H12.2973L12.2916 9.23997C12.2916 6.78282 12.2916 4.65141 12.2859 4.49712C12.2859 4.27998 12.2687 4.22855 12.1887 4.22855C12.0573 4.22284 12.3316 4.07998 13.0459 3.77141C14.7716 3.03426 16.5373 2.58855 18.343 2.42284C18.5773 2.40569 18.783 2.37712 18.7945 2.36569C18.823 2.33712 21.4859 2.38284 21.6859 2.41712ZM10.0059 12.3543C10.0059 16.1371 10.0173 19.3657 10.0287 19.5371C10.0573 19.9657 10.1145 20.56 10.1487 20.8C10.2116 21.2171 10.3945 22.0971 10.4459 22.2286C10.4745 22.3086 10.503 22.3943 10.5087 22.4286C10.5259 22.5714 10.7145 23.0914 10.8745 23.4286C11.6173 24.9943 12.9773 26.2114 14.743 26.8971C15.303 27.1143 16.1087 27.3428 16.5316 27.4C17.3887 27.5143 18.4516 27.5486 19.0058 27.4686L19.2973 27.4286V32.5314V37.64L19.063 37.6286C18.5659 37.6 17.743 37.5314 17.7145 37.5143C17.6973 37.5028 17.543 37.48 17.3716 37.4571C17.2002 37.44 16.9545 37.4 16.8287 37.3714C16.703 37.3428 16.5087 37.3028 16.4002 37.2857C14.9259 37.0286 12.4745 36.0914 11.0973 35.2457C10.903 35.1257 10.7316 35.0286 10.7145 35.0286C10.6687 35.0286 9.503 34.2057 9.0573 33.8571C6.7773 32.08 4.80015 29.48 3.69729 26.8C3.33158 25.9143 2.92015 24.6286 2.77729 23.9428C2.60587 23.1028 2.54872 22.76 2.48587 22.2857C2.46872 22.1428 2.44015 21.9257 2.42301 21.8C2.35444 21.3371 2.36015 18.7714 2.42872 18.1714C2.54301 17.2286 2.59444 16.9086 2.77729 16.1143C3.59444 12.4686 5.5316 9.21712 8.36585 6.71427C8.79445 6.33712 9.89161 5.49142 9.96015 5.48567C9.983 5.48567 10.0002 8.57712 10.0059 12.3543ZM28.0516 16.0571C28.1202 16.0914 28.183 16.2057 28.2116 16.3314C28.2687 16.6171 28.2687 19.2228 28.2116 19.8286C28.0059 21.96 27.4687 23.1486 26.3202 24.0228C25.2745 24.8171 23.8802 25.2457 22.383 25.2286C21.9373 25.2228 21.8059 25.2 21.7259 25.1257C21.6402 25.0343 21.6287 24.8571 21.6287 23.2971C21.6287 21.48 21.6573 20.9714 21.8002 20.36C22.0116 19.4514 22.9945 18.08 23.9773 17.3257C24.8459 16.6628 26.143 16.1257 27.143 16.0228C27.3487 16.0057 27.5202 15.9828 27.5259 15.9771C27.5659 15.9428 27.9545 16.0057 28.0516 16.0571ZM14.0745 16.1428C15.9259 16.5828 17.6002 17.9028 18.4573 19.6C18.703 20.0971 18.783 20.3257 18.8287 20.6857C18.8458 20.8286 18.8745 21.0343 18.8916 21.1428C18.943 21.4686 18.9659 24.52 18.9202 24.8171C18.8916 24.9657 18.8459 25.12 18.8059 25.16C18.6859 25.28 17.4287 25.2514 16.7602 25.1143C16.6859 25.0971 16.5602 25.0743 16.4745 25.0571C16.383 25.04 16.1487 24.9714 15.943 24.9028C14.6802 24.4857 13.7145 23.7657 13.1373 22.8C12.8516 22.3143 12.7602 22.0686 12.5773 21.2743C12.3602 20.3371 12.3145 19.72 12.3202 17.88C12.3202 16.4514 12.3316 16.2857 12.423 16.1428L12.5259 15.9828L13.1087 16.0171C13.423 16.0343 13.863 16.0914 14.0745 16.1428Z" fill="black"/>
</g>
</svg>
